<mxfile host="app.diagrams.net" modified="2023-03-21T12:58:55.587Z" agent="5.0 (Windows NT 10.0; Win64; x64) AppleWebKit/537.36 (KHTML, like Gecko) Chrome/111.0.0.0 Safari/537.36 Edg/111.0.1661.44" etag="GnUWIYRsztItNdY3whjU" version="21.0.6" type="github">
  <diagram name="第 1 页" id="eIyC6ror9UsLPUK6l-Cr">
    <mxGraphModel dx="724" dy="400" grid="1" gridSize="10" guides="1" tooltips="1" connect="1" arrows="1" fold="1" page="1" pageScale="1" pageWidth="980" pageHeight="1390" math="0" shadow="0">
      <root>
        <mxCell id="0" />
        <mxCell id="1" parent="0" />
        <mxCell id="xM7iWqvUs1YsY5B8zdD--1" value="系" style="rounded=0;whiteSpace=wrap;html=1;" vertex="1" parent="1">
          <mxGeometry x="400" y="80" width="80" height="40" as="geometry" />
        </mxCell>
        <mxCell id="xM7iWqvUs1YsY5B8zdD--2" value="教研室" style="rounded=0;whiteSpace=wrap;html=1;" vertex="1" parent="1">
          <mxGeometry x="320" y="240" width="80" height="40" as="geometry" />
        </mxCell>
        <mxCell id="xM7iWqvUs1YsY5B8zdD--3" value="组成" style="rhombus;whiteSpace=wrap;html=1;" vertex="1" parent="1">
          <mxGeometry x="320" y="160" width="80" height="40" as="geometry" />
        </mxCell>
        <mxCell id="xM7iWqvUs1YsY5B8zdD--4" value="组成" style="rhombus;whiteSpace=wrap;html=1;" vertex="1" parent="1">
          <mxGeometry x="320" y="320" width="80" height="40" as="geometry" />
        </mxCell>
        <mxCell id="xM7iWqvUs1YsY5B8zdD--5" value="教师" style="rounded=0;whiteSpace=wrap;html=1;" vertex="1" parent="1">
          <mxGeometry x="320" y="400" width="80" height="40" as="geometry" />
        </mxCell>
        <mxCell id="xM7iWqvUs1YsY5B8zdD--6" value="职称" style="ellipse;whiteSpace=wrap;html=1;" vertex="1" parent="1">
          <mxGeometry x="320" y="480" width="80" height="40" as="geometry" />
        </mxCell>
        <mxCell id="xM7iWqvUs1YsY5B8zdD--7" value="班级" style="rounded=0;whiteSpace=wrap;html=1;" vertex="1" parent="1">
          <mxGeometry x="480" y="240" width="80" height="40" as="geometry" />
        </mxCell>
        <mxCell id="xM7iWqvUs1YsY5B8zdD--8" value="组成" style="rhombus;whiteSpace=wrap;html=1;" vertex="1" parent="1">
          <mxGeometry x="480" y="160" width="80" height="40" as="geometry" />
        </mxCell>
        <mxCell id="xM7iWqvUs1YsY5B8zdD--9" value="组成" style="rhombus;whiteSpace=wrap;html=1;" vertex="1" parent="1">
          <mxGeometry x="480" y="320" width="80" height="40" as="geometry" />
        </mxCell>
        <mxCell id="xM7iWqvUs1YsY5B8zdD--10" value="学生" style="rounded=0;whiteSpace=wrap;html=1;" vertex="1" parent="1">
          <mxGeometry x="480" y="400" width="80" height="40" as="geometry" />
        </mxCell>
        <mxCell id="xM7iWqvUs1YsY5B8zdD--11" value="" style="endArrow=none;html=1;rounded=0;exitX=0.5;exitY=1;exitDx=0;exitDy=0;entryX=0.5;entryY=0;entryDx=0;entryDy=0;" edge="1" parent="1" source="xM7iWqvUs1YsY5B8zdD--3" target="xM7iWqvUs1YsY5B8zdD--2">
          <mxGeometry width="50" height="50" relative="1" as="geometry">
            <mxPoint x="460" y="330" as="sourcePoint" />
            <mxPoint x="510" y="280" as="targetPoint" />
          </mxGeometry>
        </mxCell>
        <mxCell id="xM7iWqvUs1YsY5B8zdD--12" value="" style="endArrow=none;html=1;rounded=0;exitX=0.5;exitY=1;exitDx=0;exitDy=0;entryX=0.5;entryY=0;entryDx=0;entryDy=0;" edge="1" parent="1">
          <mxGeometry width="50" height="50" relative="1" as="geometry">
            <mxPoint x="519.5" y="440" as="sourcePoint" />
            <mxPoint x="519.5" y="480" as="targetPoint" />
          </mxGeometry>
        </mxCell>
        <mxCell id="xM7iWqvUs1YsY5B8zdD--13" value="" style="endArrow=none;html=1;rounded=0;exitX=0.5;exitY=1;exitDx=0;exitDy=0;entryX=0.5;entryY=0;entryDx=0;entryDy=0;" edge="1" parent="1">
          <mxGeometry width="50" height="50" relative="1" as="geometry">
            <mxPoint x="359.5" y="280" as="sourcePoint" />
            <mxPoint x="359.5" y="320" as="targetPoint" />
          </mxGeometry>
        </mxCell>
        <mxCell id="xM7iWqvUs1YsY5B8zdD--14" value="" style="endArrow=none;html=1;rounded=0;exitX=0.5;exitY=1;exitDx=0;exitDy=0;entryX=0.5;entryY=0;entryDx=0;entryDy=0;" edge="1" parent="1">
          <mxGeometry width="50" height="50" relative="1" as="geometry">
            <mxPoint x="359.71" y="360" as="sourcePoint" />
            <mxPoint x="359.71" y="400" as="targetPoint" />
          </mxGeometry>
        </mxCell>
        <mxCell id="xM7iWqvUs1YsY5B8zdD--15" value="" style="endArrow=none;html=1;rounded=0;exitX=0.5;exitY=1;exitDx=0;exitDy=0;entryX=0.5;entryY=0;entryDx=0;entryDy=0;" edge="1" parent="1">
          <mxGeometry width="50" height="50" relative="1" as="geometry">
            <mxPoint x="400" y="240" as="sourcePoint" />
            <mxPoint x="400" y="280" as="targetPoint" />
          </mxGeometry>
        </mxCell>
        <mxCell id="xM7iWqvUs1YsY5B8zdD--16" value="" style="endArrow=none;html=1;rounded=0;exitX=0.5;exitY=1;exitDx=0;exitDy=0;entryX=0.5;entryY=0;entryDx=0;entryDy=0;" edge="1" parent="1">
          <mxGeometry width="50" height="50" relative="1" as="geometry">
            <mxPoint x="519.5" y="360" as="sourcePoint" />
            <mxPoint x="519.5" y="400" as="targetPoint" />
          </mxGeometry>
        </mxCell>
        <mxCell id="xM7iWqvUs1YsY5B8zdD--17" value="" style="endArrow=none;html=1;rounded=0;exitX=0.5;exitY=1;exitDx=0;exitDy=0;entryX=0.5;entryY=0;entryDx=0;entryDy=0;" edge="1" parent="1">
          <mxGeometry width="50" height="50" relative="1" as="geometry">
            <mxPoint x="519.5" y="280" as="sourcePoint" />
            <mxPoint x="519.5" y="320" as="targetPoint" />
          </mxGeometry>
        </mxCell>
        <mxCell id="xM7iWqvUs1YsY5B8zdD--18" value="" style="endArrow=none;html=1;rounded=0;exitX=0.5;exitY=1;exitDx=0;exitDy=0;entryX=0.5;entryY=0;entryDx=0;entryDy=0;" edge="1" parent="1">
          <mxGeometry width="50" height="50" relative="1" as="geometry">
            <mxPoint x="519.5" y="200" as="sourcePoint" />
            <mxPoint x="519.5" y="240" as="targetPoint" />
          </mxGeometry>
        </mxCell>
        <mxCell id="xM7iWqvUs1YsY5B8zdD--19" value="" style="endArrow=none;html=1;rounded=0;exitX=0.5;exitY=1;exitDx=0;exitDy=0;entryX=0.5;entryY=0;entryDx=0;entryDy=0;" edge="1" parent="1">
          <mxGeometry width="50" height="50" relative="1" as="geometry">
            <mxPoint x="359.71" y="440" as="sourcePoint" />
            <mxPoint x="359.71" y="480" as="targetPoint" />
          </mxGeometry>
        </mxCell>
        <mxCell id="xM7iWqvUs1YsY5B8zdD--20" value="选修" style="rhombus;whiteSpace=wrap;html=1;" vertex="1" parent="1">
          <mxGeometry x="480" y="480" width="80" height="40" as="geometry" />
        </mxCell>
        <mxCell id="xM7iWqvUs1YsY5B8zdD--21" value="" style="endArrow=none;html=1;rounded=0;exitX=0.5;exitY=1;exitDx=0;exitDy=0;entryX=0.5;entryY=0;entryDx=0;entryDy=0;" edge="1" parent="1">
          <mxGeometry width="50" height="50" relative="1" as="geometry">
            <mxPoint x="519.66" y="520" as="sourcePoint" />
            <mxPoint x="519.66" y="560" as="targetPoint" />
          </mxGeometry>
        </mxCell>
        <mxCell id="xM7iWqvUs1YsY5B8zdD--22" value="课程" style="rounded=0;whiteSpace=wrap;html=1;" vertex="1" parent="1">
          <mxGeometry x="480" y="560" width="80" height="40" as="geometry" />
        </mxCell>
        <mxCell id="xM7iWqvUs1YsY5B8zdD--23" value="" style="endArrow=none;html=1;rounded=0;exitX=0;exitY=1;exitDx=0;exitDy=0;entryX=0.5;entryY=0;entryDx=0;entryDy=0;" edge="1" parent="1" source="xM7iWqvUs1YsY5B8zdD--1" target="xM7iWqvUs1YsY5B8zdD--3">
          <mxGeometry width="50" height="50" relative="1" as="geometry">
            <mxPoint x="370" y="210" as="sourcePoint" />
            <mxPoint x="370" y="250" as="targetPoint" />
          </mxGeometry>
        </mxCell>
        <mxCell id="xM7iWqvUs1YsY5B8zdD--24" value="" style="endArrow=none;html=1;rounded=0;exitX=1;exitY=1;exitDx=0;exitDy=0;entryX=0.5;entryY=0;entryDx=0;entryDy=0;" edge="1" parent="1" source="xM7iWqvUs1YsY5B8zdD--1" target="xM7iWqvUs1YsY5B8zdD--8">
          <mxGeometry width="50" height="50" relative="1" as="geometry">
            <mxPoint x="380" y="220" as="sourcePoint" />
            <mxPoint x="380" y="260" as="targetPoint" />
          </mxGeometry>
        </mxCell>
        <mxCell id="xM7iWqvUs1YsY5B8zdD--25" value="1" style="text;html=1;align=center;verticalAlign=middle;resizable=0;points=[];autosize=1;strokeColor=none;fillColor=none;" vertex="1" parent="1">
          <mxGeometry x="365" y="105" width="30" height="30" as="geometry" />
        </mxCell>
        <mxCell id="xM7iWqvUs1YsY5B8zdD--26" value="1" style="text;html=1;align=center;verticalAlign=middle;resizable=0;points=[];autosize=1;strokeColor=none;fillColor=none;" vertex="1" parent="1">
          <mxGeometry x="485" y="105" width="30" height="30" as="geometry" />
        </mxCell>
        <mxCell id="xM7iWqvUs1YsY5B8zdD--27" value="n" style="text;html=1;align=center;verticalAlign=middle;resizable=0;points=[];autosize=1;strokeColor=none;fillColor=none;" vertex="1" parent="1">
          <mxGeometry x="365" y="205" width="30" height="30" as="geometry" />
        </mxCell>
        <mxCell id="xM7iWqvUs1YsY5B8zdD--28" value="n" style="text;html=1;align=center;verticalAlign=middle;resizable=0;points=[];autosize=1;strokeColor=none;fillColor=none;" vertex="1" parent="1">
          <mxGeometry x="530" y="205" width="30" height="30" as="geometry" />
        </mxCell>
        <mxCell id="xM7iWqvUs1YsY5B8zdD--29" value="1" style="text;html=1;align=center;verticalAlign=middle;resizable=0;points=[];autosize=1;strokeColor=none;fillColor=none;" vertex="1" parent="1">
          <mxGeometry x="365" y="290" width="30" height="30" as="geometry" />
        </mxCell>
        <mxCell id="xM7iWqvUs1YsY5B8zdD--30" value="1" style="text;html=1;align=center;verticalAlign=middle;resizable=0;points=[];autosize=1;strokeColor=none;fillColor=none;" vertex="1" parent="1">
          <mxGeometry x="525" y="295" width="30" height="30" as="geometry" />
        </mxCell>
        <mxCell id="xM7iWqvUs1YsY5B8zdD--31" value="n" style="text;html=1;align=center;verticalAlign=middle;resizable=0;points=[];autosize=1;strokeColor=none;fillColor=none;" vertex="1" parent="1">
          <mxGeometry x="365" y="365" width="30" height="30" as="geometry" />
        </mxCell>
        <mxCell id="xM7iWqvUs1YsY5B8zdD--32" value="n" style="text;html=1;align=center;verticalAlign=middle;resizable=0;points=[];autosize=1;strokeColor=none;fillColor=none;" vertex="1" parent="1">
          <mxGeometry x="525" y="365" width="30" height="30" as="geometry" />
        </mxCell>
        <mxCell id="xM7iWqvUs1YsY5B8zdD--33" value="m" style="text;html=1;align=center;verticalAlign=middle;resizable=0;points=[];autosize=1;strokeColor=none;fillColor=none;" vertex="1" parent="1">
          <mxGeometry x="525" y="445" width="30" height="30" as="geometry" />
        </mxCell>
        <mxCell id="xM7iWqvUs1YsY5B8zdD--34" value="n" style="text;html=1;align=center;verticalAlign=middle;resizable=0;points=[];autosize=1;strokeColor=none;fillColor=none;" vertex="1" parent="1">
          <mxGeometry x="525" y="525" width="30" height="30" as="geometry" />
        </mxCell>
        <mxCell id="xM7iWqvUs1YsY5B8zdD--35" value="指导" style="rhombus;whiteSpace=wrap;html=1;" vertex="1" parent="1">
          <mxGeometry x="400" y="445" width="80" height="40" as="geometry" />
        </mxCell>
        <mxCell id="xM7iWqvUs1YsY5B8zdD--36" value="" style="endArrow=none;html=1;rounded=0;exitX=1;exitY=1;exitDx=0;exitDy=0;entryX=0;entryY=0;entryDx=0;entryDy=0;" edge="1" parent="1" source="xM7iWqvUs1YsY5B8zdD--5" target="xM7iWqvUs1YsY5B8zdD--35">
          <mxGeometry width="50" height="50" relative="1" as="geometry">
            <mxPoint x="369.71000000000004" y="450" as="sourcePoint" />
            <mxPoint x="369.71000000000004" y="490" as="targetPoint" />
          </mxGeometry>
        </mxCell>
        <mxCell id="xM7iWqvUs1YsY5B8zdD--37" value="" style="endArrow=none;html=1;rounded=0;exitX=0;exitY=1;exitDx=0;exitDy=0;entryX=1;entryY=0;entryDx=0;entryDy=0;" edge="1" parent="1" source="xM7iWqvUs1YsY5B8zdD--10" target="xM7iWqvUs1YsY5B8zdD--35">
          <mxGeometry width="50" height="50" relative="1" as="geometry">
            <mxPoint x="379.71000000000004" y="460" as="sourcePoint" />
            <mxPoint x="379.71000000000004" y="500" as="targetPoint" />
          </mxGeometry>
        </mxCell>
        <mxCell id="xM7iWqvUs1YsY5B8zdD--38" value="1" style="text;html=1;align=center;verticalAlign=middle;resizable=0;points=[];autosize=1;strokeColor=none;fillColor=none;" vertex="1" parent="1">
          <mxGeometry x="395" y="425" width="30" height="30" as="geometry" />
        </mxCell>
        <mxCell id="xM7iWqvUs1YsY5B8zdD--39" value="n" style="text;html=1;align=center;verticalAlign=middle;resizable=0;points=[];autosize=1;strokeColor=none;fillColor=none;" vertex="1" parent="1">
          <mxGeometry x="455" y="425" width="30" height="30" as="geometry" />
        </mxCell>
      </root>
    </mxGraphModel>
  </diagram>
</mxfile>
